# xmcd
#
# Track frame offsets:
#	150
#	21415
#	40589
#	63854
#	82650
#	101762
#	122839
#	141371
#	155903
#	173156
#	192526
#	220689
#	232991
#	252024
#
# Disc length: 3558 seconds
#
# Revision: 1
# Processed by: cddbd v1.4PL0 Copyright (c) Steve Scherf et al.
# Submitted via: audiograbber 1.82.02
#
DISCID=bb0de40e
DTITLE=John Mayall - Silvet Tones - The Best Of
DYEAR=1998
DGENRE=Blues
TTITLE0=Mail Order Mystics
TTITLE1=Wake Up Call
TTITLE2=I Could Cry
TTITLE3=Not At Home
TTITLE4=When The Devil Starts Crying
TTITLE5=Spinning Coin
TTITLE6=Ain't No Brakeman
TTITLE7=No Big Hurry
TTITLE8=Dead City
TTITLE9=Stone Cold Deal
TTITLE10=Blues For The Lost Days
TTITLE11=I Don't Mind
TTITLE12=Movin' Grovin' Blues
TTITLE13=Fan The Flames
EXTD=
EXTT0=
EXTT1=Featuring Mavis Staples and Mick Taylor
EXTT2=Featuring Buddy Guy
EXTT3=Featuring Mick Taylor
EXTT4=
EXTT5=
EXTT6=
EXTT7=
EXTT8=
EXTT9=
EXTT10=
EXTT11=
EXTT12=
EXTT13=Alternate Take
PLAYORDER=
